<?xml version="1.0" standalone="no"?>
<!DOCTYPE svg PUBLIC "-//W3C//DTD SVG 20010904//EN"
 "http://www.w3.org/TR/2001/REC-SVG-20010904/DTD/svg10.dtd">
<svg version="1.0" xmlns="http://www.w3.org/2000/svg"
 width="626.000000pt" height="417.000000pt" viewBox="0 0 626.000000 417.000000"
 preserveAspectRatio="xMidYMid meet">
<metadata>
Created by potrace 1.16, written by Peter Selinger 2001-2019
</metadata>
<g transform="translate(0.000000,417.000000) scale(0.100000,-0.100000)"
fill="#000000" stroke="none">
<path d="M0 2085 l0 -2085 3130 0 3130 0 0 2085 0 2085 -3130 0 -3130 0 0
-2085z m4290 1484 c0 -11 16 -35 36 -52 20 -18 58 -62 85 -99 27 -38 54 -68
59 -68 6 0 10 -6 10 -14 0 -8 9 -18 20 -21 11 -4 27 -19 35 -34 16 -32 43 -47
59 -31 15 15 26 12 26 -6 0 -8 5 -12 10 -9 6 3 10 15 10 27 0 19 4 20 47 13
45 -7 72 -26 73 -52 0 -7 5 -13 12 -13 6 0 20 -7 30 -17 23 -21 29 -14 33 39
2 24 4 49 4 56 1 18 48 15 59 -4 6 -11 17 -15 31 -11 27 7 27 -4 1 -21 -11 -7
-20 -19 -20 -27 0 -18 20 -20 21 -2 0 10 2 10 6 0 2 -7 9 -13 15 -13 6 0 8 7
4 15 -3 8 0 15 7 15 20 0 40 -17 43 -36 11 -72 53 -124 99 -124 14 0 17 -6 14
-27 0 -3 6 -10 15 -15 9 -5 14 -14 10 -19 -10 -16 16 -38 52 -45 21 -4 34 -12
34 -21 0 -9 6 -13 14 -10 8 3 20 -1 26 -9 7 -8 21 -14 31 -14 12 0 19 -7 19
-20 0 -11 4 -20 9 -20 5 0 11 -12 14 -26 3 -20 -1 -27 -19 -34 -13 -5 -24 -16
-24 -25 0 -20 -36 -19 -44 1 -6 15 -9 14 -31 -6 -13 -13 -22 -27 -19 -31 7
-11 1 -11 -31 1 -20 8 -27 7 -31 -5 -4 -8 -12 -15 -20 -15 -8 0 -14 -4 -14 -9
0 -6 -13 -17 -28 -26 -16 -10 -32 -26 -38 -38 -11 -26 -66 -42 -94 -27 -24 13
-85 -12 -103 -42 -19 -30 -92 -60 -130 -53 -24 5 -37 2 -46 -9 -10 -12 -18
-13 -33 -5 -14 7 -23 7 -33 -1 -8 -7 -18 -9 -23 -6 -5 3 -17 -3 -27 -14 -10
-11 -22 -17 -26 -14 -5 3 -9 2 -9 -1 0 -3 14 -11 30 -17 28 -9 29 -12 14 -23
-10 -7 -17 -25 -16 -42 0 -18 -9 -41 -23 -57 -19 -22 -22 -32 -14 -53 12 -33
11 -43 -3 -40 -7 1 -11 -5 -9 -13 4 -14 11 -130 13 -209 1 -22 -5 -38 -17 -47
-16 -12 8 -14 167 -14 103 0 189 -4 192 -8 6 -10 -630 -10 -640 1 -4 4 2 7 13
7 18 0 20 5 16 46 -2 25 -8 67 -14 92 -11 44 -29 181 -30 227 0 11 2 35 5 54
3 19 0 47 -6 63 -13 29 -27 37 -29 16 0 -9 -2 -9 -6 1 -9 23 -37 51 -50 51 -8
0 -18 10 -24 23 -6 13 -20 27 -32 32 -12 6 -23 20 -25 33 -2 12 -10 22 -18 22
-8 0 -14 6 -15 13 -7 115 -10 150 -19 192 -6 28 -13 61 -16 73 -3 13 -1 21 4
18 5 -3 8 34 7 82 -2 60 2 93 11 107 21 29 18 48 -6 40 -15 -5 -18 -3 -14 9 3
9 10 16 15 16 5 0 9 9 9 20 0 13 5 17 14 14 12 -5 14 7 12 67 -3 60 0 75 16
91 13 13 18 29 15 44 -3 16 0 24 9 24 7 0 11 6 8 13 -6 16 20 70 29 60 11 -10
36 17 30 33 -5 14 16 17 115 16 17 0 32 4 32 9 0 5 5 9 10 9 6 0 10 -9 10 -21z"/>
</g>
</svg>
